<svg width="62" height="20" viewBox="0 0 62 20" fill="none" xmlns="http://www.w3.org/2000/svg">
<path d="M20.7019 13.9568V5.07115C20.7019 4.97296 20.7409 4.87879 20.8104 4.80935C20.8799 4.73992 20.9742 4.70091 21.0725 4.70091H22.4213C23.3662 4.70091 24.1295 5.07115 24.2518 6.00785C24.9151 5.26738 25.734 4.57874 27.2162 4.57874C29.4099 4.57874 30.0139 6.02636 30.0139 7.93679V13.9568C30.0139 14.055 29.9749 14.1492 29.9054 14.2186C29.8359 14.2881 29.7417 14.3271 29.6434 14.3271H26.8309C26.7326 14.3271 26.6383 14.2881 26.5688 14.2186C26.4994 14.1492 26.4603 14.055 26.4603 13.9568V8.63283C26.4603 7.92938 26.0601 7.72945 25.697 7.72945C25.2104 7.75382 24.7327 7.86937 24.2889 8.07007V13.9568C24.2889 14.055 24.2498 14.1492 24.1803 14.2186C24.1108 14.2881 24.0166 14.3271 23.9183 14.3271H21.1021C21.051 14.3312 20.9996 14.3246 20.9512 14.3079C20.9027 14.2911 20.8583 14.2645 20.8207 14.2297C20.7831 14.1949 20.7531 14.1527 20.7327 14.1057C20.7122 14.0588 20.7017 14.0081 20.7019 13.9568Z" fill="white"/>
<path d="M31.0139 9.60285C31.0139 6.12633 33.2891 4.57874 36.0423 4.57874C38.7956 4.57874 41.0707 6.11152 41.0707 9.60285C41.0707 13.0942 38.7993 14.627 36.0423 14.627C33.2854 14.627 31.0139 13.0646 31.0139 9.60285ZM37.506 9.60285C37.506 7.99232 36.8835 7.59246 36.0572 7.59246C35.2308 7.59246 34.612 7.99232 34.612 9.60285C34.612 11.2134 35.2345 11.6095 36.0572 11.6095C36.8798 11.6095 37.506 11.1949 37.506 9.60285Z" fill="white"/>
<path d="M42.0708 18.7929V5.20152C42.0708 5.10333 42.1098 5.00916 42.1793 4.93973C42.2488 4.87029 42.3431 4.83129 42.4414 4.83129H43.7902C44.5535 4.83129 45.239 5.15339 45.4984 5.81612C45.9209 5.29408 46.5063 4.73132 48.0923 4.73132C50.1229 4.73132 52.0128 6.07899 52.0128 9.65548C52.0128 13.232 50.1229 14.5759 48.0923 14.5759C46.6434 14.5759 46.0394 14.0132 45.6578 13.6133V18.7929C45.6578 18.8911 45.6187 18.9853 45.5492 19.0547C45.4797 19.1242 45.3855 19.1632 45.2872 19.1632H42.471C42.4199 19.1673 42.3685 19.1607 42.3201 19.144C42.2716 19.1272 42.2272 19.1006 42.1896 19.0658C42.152 19.031 42.122 18.9888 42.1016 18.9418C42.0811 18.8948 42.0706 18.8441 42.0708 18.7929ZM48.4258 9.64437C48.4258 8.07456 47.8848 7.63398 46.8991 7.63398C46.4649 7.6332 46.0368 7.73601 45.6503 7.93387V11.3512C46.0368 11.549 46.4649 11.6518 46.8991 11.6511C47.8848 11.6362 48.4258 11.1957 48.4258 9.64437Z" fill="white"/>
<path d="M53.0127 14.0135V0.370237C53.0127 0.272044 53.0517 0.177873 53.1212 0.10844C53.1907 0.0390067 53.285 0 53.3832 0H56.1995C56.2977 0 56.392 0.0390067 56.4615 0.10844C56.531 0.177873 56.57 0.272044 56.57 0.370237V14.0135C56.57 14.1117 56.531 14.2058 56.4615 14.2753C56.392 14.3447 56.2977 14.3837 56.1995 14.3837H53.3832C53.285 14.3837 53.1907 14.3447 53.1212 14.2753C53.0517 14.2058 53.0127 14.1117 53.0127 14.0135Z" fill="white"/>
<path d="M57.5701 14.0246V5.13891C57.5701 5.04072 57.6091 4.94654 57.6786 4.87711C57.7481 4.80768 57.8423 4.76867 57.9406 4.76867H60.7568C60.8551 4.76867 60.9494 4.80768 61.0189 4.87711C61.0883 4.94654 61.1274 5.04072 61.1274 5.13891V14.0246C61.1274 14.1228 61.0883 14.217 61.0189 14.2864C60.9494 14.3558 60.8551 14.3948 60.7568 14.3948H57.9406C57.8423 14.3948 57.7481 14.3558 57.6786 14.2864C57.6091 14.217 57.5701 14.1228 57.5701 14.0246ZM59.3598 0.0185283C59.6986 0.0185291 60.0297 0.118943 60.3113 0.307059C60.5929 0.495174 60.8124 0.762536 60.9418 1.0753C61.0713 1.38807 61.105 1.73219 61.0386 2.06409C60.9723 2.39599 60.8089 2.70077 60.5691 2.93984C60.3293 3.17891 60.0239 3.34152 59.6915 3.4071C59.3592 3.47269 59.0149 3.43828 58.7021 3.30825C58.3894 3.17822 58.1223 2.95841 57.9346 2.67663C57.7469 2.39485 57.6471 2.06378 57.6479 1.72532C57.6449 1.49918 57.6871 1.27472 57.7719 1.06503C57.8567 0.855345 57.9824 0.664633 58.1418 0.504027C58.3012 0.34342 58.4909 0.216135 58.7001 0.129601C58.9092 0.043066 59.1335 -0.000985834 59.3598 1.67357e-05V0.0185283Z" fill="white"/>
<path d="M19.6871 8.61062V7.99232C19.6871 5.54135 18.4198 4.57874 15.7259 4.57874C14.5364 4.57874 12.9504 4.77866 12.1241 5.18222C11.5608 5.44139 11.3385 5.70426 11.3385 6.18556V7.39254C11.3385 7.76277 11.4608 7.91457 11.709 7.91457C12.019 7.88089 12.323 7.80619 12.6132 7.69243C13.3982 7.40098 14.2289 7.25178 15.0663 7.25185C16.1149 7.25185 16.215 7.59247 16.215 8.43661V8.64394C15.6475 8.52194 15.0686 8.46112 14.4882 8.46252C12.376 8.46252 10.7456 9.40663 10.7456 11.4763C10.7456 13.6681 12.1759 14.49 13.8842 14.49C15.2478 14.49 15.9185 14.0531 16.3224 13.5533C16.5818 14.079 17.2822 14.3863 18.0085 14.3863H19.3313C19.4296 14.3863 19.5239 14.3473 19.5934 14.2779C19.6629 14.2084 19.7019 14.1143 19.7019 14.0161V8.67356C19.699 8.65215 19.694 8.63108 19.6871 8.61062ZM15.3219 12.4352C14.5808 12.4352 14.2103 12.1353 14.2103 11.2504C14.2103 10.3655 14.5808 10.0619 15.3219 10.0619C15.6235 10.061 15.9226 10.1163 16.2039 10.2249V12.2352C15.9256 12.3583 15.6261 12.4262 15.3219 12.4352Z" fill="white"/>
<path d="M3.75362e-08 14.0625V1.89648C3.75362e-08 1.79829 0.0390401 1.70412 0.108532 1.63468C0.178025 1.56525 0.272277 1.52625 0.370554 1.52625H5.41009C7.67046 1.52625 9.74557 2.51108 9.74557 5.85432C9.74557 8.89767 7.67047 10.1861 5.53237 10.1861H3.57585V14.0625C3.57585 14.1607 3.53681 14.2548 3.46731 14.3243C3.39782 14.3937 3.30357 14.4327 3.20529 14.4327H0.38167C0.332081 14.4342 0.282699 14.4257 0.23645 14.4078C0.190202 14.3898 0.148029 14.3628 0.112434 14.3283C0.0768387 14.2937 0.0485456 14.2524 0.0292323 14.2068C0.0099189 14.1611 -2.22928e-05 14.112 3.75362e-08 14.0625ZM3.58696 7.37229H4.59487C5.64354 7.37229 6.16972 6.97243 6.16972 5.86172C6.16972 4.75101 5.64354 4.35116 4.6171 4.35116H3.58696V7.37229Z" fill="white"/>
</svg>
